<mxfile host="app.diagrams.net" agent="Mozilla/5.0 (Windows NT 10.0; Win64; x64) AppleWebKit/537.36 (KHTML, like Gecko) Chrome/139.0.0.0 Safari/537.36" version="28.2.0">
  <diagram name="Page-1" id="6z6O5gTYu6NG59R_pvrr">
    <mxGraphModel dx="1744" dy="1014" grid="0" gridSize="10" guides="1" tooltips="1" connect="1" arrows="1" fold="1" page="1" pageScale="1" pageWidth="850" pageHeight="1100" background="light-dark(#FFFFFF,#FFFFFF)" math="0" shadow="0">
      <root>
        <mxCell id="0" />
        <mxCell id="1" parent="0" />
        <mxCell id="HzpkZbNFiSMj0MUtHJk6-1" value="" style="verticalLabelPosition=bottom;html=1;verticalAlign=top;align=center;strokeColor=none;fillColor=light-dark(#000000,#000000);shape=mxgraph.azure.github_code;pointerEvents=1;direction=east;" vertex="1" parent="1">
          <mxGeometry x="384.75" y="147" width="30" height="30" as="geometry" />
        </mxCell>
        <mxCell id="HzpkZbNFiSMj0MUtHJk6-3" value="" style="endArrow=classic;startArrow=classic;html=1;rounded=0;entryX=0.145;entryY=0.145;entryDx=0;entryDy=0;entryPerimeter=0;strokeColor=light-dark(#000000,#000000);exitX=0.5;exitY=1;exitDx=0;exitDy=0;exitPerimeter=0;" edge="1" parent="1" source="HzpkZbNFiSMj0MUtHJk6-9" target="HzpkZbNFiSMj0MUtHJk6-1">
          <mxGeometry width="50" height="50" relative="1" as="geometry">
            <mxPoint x="219.75" y="81" as="sourcePoint" />
            <mxPoint x="289.75" y="51" as="targetPoint" />
          </mxGeometry>
        </mxCell>
        <mxCell id="HzpkZbNFiSMj0MUtHJk6-4" value="" style="endArrow=classic;startArrow=classic;html=1;rounded=0;strokeColor=light-dark(#000000,#000000);exitX=0.5;exitY=1;exitDx=0;exitDy=0;exitPerimeter=0;entryX=0.5;entryY=0;entryDx=0;entryDy=0;entryPerimeter=0;" edge="1" parent="1" source="HzpkZbNFiSMj0MUtHJk6-8" target="HzpkZbNFiSMj0MUtHJk6-1">
          <mxGeometry width="50" height="50" relative="1" as="geometry">
            <mxPoint x="217.75" y="38" as="sourcePoint" />
            <mxPoint x="396.75" y="195" as="targetPoint" />
          </mxGeometry>
        </mxCell>
        <mxCell id="HzpkZbNFiSMj0MUtHJk6-5" value="" style="endArrow=classic;startArrow=classic;html=1;rounded=0;entryX=0.855;entryY=0.145;entryDx=0;entryDy=0;entryPerimeter=0;strokeColor=light-dark(#000000,#000000);exitX=0.5;exitY=1;exitDx=0;exitDy=0;exitPerimeter=0;" edge="1" parent="1" source="HzpkZbNFiSMj0MUtHJk6-7" target="HzpkZbNFiSMj0MUtHJk6-1">
          <mxGeometry width="50" height="50" relative="1" as="geometry">
            <mxPoint x="219.75" y="1" as="sourcePoint" />
            <mxPoint x="289.75" y="1" as="targetPoint" />
          </mxGeometry>
        </mxCell>
        <mxCell id="HzpkZbNFiSMj0MUtHJk6-7" value="" style="verticalLabelPosition=bottom;html=1;verticalAlign=top;align=center;strokeColor=none;fillColor=light-dark(#000000,#000000);shape=mxgraph.azure.laptop;pointerEvents=1;direction=east;" vertex="1" parent="1">
          <mxGeometry x="500.75" y="36" width="27" height="21" as="geometry" />
        </mxCell>
        <mxCell id="HzpkZbNFiSMj0MUtHJk6-8" value="" style="verticalLabelPosition=bottom;html=1;verticalAlign=top;align=center;strokeColor=none;fillColor=light-dark(#000000,#000000);shape=mxgraph.azure.laptop;pointerEvents=1;direction=east;" vertex="1" parent="1">
          <mxGeometry x="387.75" y="36" width="27" height="21" as="geometry" />
        </mxCell>
        <mxCell id="HzpkZbNFiSMj0MUtHJk6-9" value="" style="verticalLabelPosition=bottom;html=1;verticalAlign=top;align=center;strokeColor=none;fillColor=light-dark(#000000,#000000);shape=mxgraph.azure.laptop;pointerEvents=1;direction=east;" vertex="1" parent="1">
          <mxGeometry x="274.75" y="42" width="27" height="21" as="geometry" />
        </mxCell>
        <mxCell id="HzpkZbNFiSMj0MUtHJk6-10" value="" style="endArrow=classic;html=1;rounded=0;exitX=0.145;exitY=0.855;exitDx=0;exitDy=0;exitPerimeter=0;strokeColor=light-dark(#000000,#000000);entryX=0.543;entryY=-0.016;entryDx=0;entryDy=0;entryPerimeter=0;" edge="1" parent="1" source="HzpkZbNFiSMj0MUtHJk6-1" target="HzpkZbNFiSMj0MUtHJk6-11">
          <mxGeometry width="50" height="50" relative="1" as="geometry">
            <mxPoint x="203.75" y="849.5" as="sourcePoint" />
            <mxPoint x="399.75" y="287" as="targetPoint" />
          </mxGeometry>
        </mxCell>
        <mxCell id="HzpkZbNFiSMj0MUtHJk6-11" value="" style="whiteSpace=wrap;html=1;aspect=fixed;fillColor=none;strokeColor=light-dark(#000000,#000000);direction=east;" vertex="1" parent="1">
          <mxGeometry x="171.5" y="319" width="190.5" height="190.5" as="geometry" />
        </mxCell>
        <mxCell id="HzpkZbNFiSMj0MUtHJk6-12" value="&lt;font style=&quot;color: light-dark(rgb(0, 0, 0), rgb(0, 0, 0));&quot;&gt;Backend (Gunicorn) Container&lt;/font&gt;&lt;div&gt;&lt;font style=&quot;color: light-dark(rgb(0, 0, 0), rgb(0, 0, 0));&quot;&gt;port: 8000&lt;/font&gt;&lt;/div&gt;" style="rounded=0;whiteSpace=wrap;html=1;fillColor=none;strokeColor=light-dark(#000000,#000000);direction=east;" vertex="1" parent="1">
          <mxGeometry x="206.75" y="404.5" width="112" height="43" as="geometry" />
        </mxCell>
        <mxCell id="HzpkZbNFiSMj0MUtHJk6-15" value="&lt;font style=&quot;color: light-dark(rgb(0, 0, 0), rgb(0, 0, 0));&quot;&gt;Oracle DB&lt;/font&gt;&lt;div&gt;&lt;font style=&quot;color: light-dark(rgb(0, 0, 0), rgb(0, 0, 0));&quot;&gt;port: 1521&lt;/font&gt;&lt;/div&gt;" style="rounded=0;whiteSpace=wrap;html=1;fillColor=none;strokeColor=light-dark(#000000,#000000);direction=east;" vertex="1" parent="1">
          <mxGeometry x="206.75" y="463.75" width="112.5" height="27" as="geometry" />
        </mxCell>
        <mxCell id="HzpkZbNFiSMj0MUtHJk6-16" value="&lt;font style=&quot;color: light-dark(rgb(0, 0, 0), rgb(0, 0, 0));&quot;&gt;Frontend (Nginx) Container&lt;/font&gt;&lt;div&gt;&lt;font style=&quot;color: light-dark(rgb(0, 0, 0), rgb(0, 0, 0));&quot;&gt;port: 8080&lt;/font&gt;&lt;/div&gt;" style="rounded=0;whiteSpace=wrap;html=1;fillColor=none;strokeColor=light-dark(#000000,#000000);direction=east;" vertex="1" parent="1">
          <mxGeometry x="208.25" y="350.75" width="113" height="41" as="geometry" />
        </mxCell>
        <mxCell id="HzpkZbNFiSMj0MUtHJk6-17" value="&lt;font style=&quot;color: light-dark(rgb(0, 0, 0), rgb(0, 0, 0));&quot;&gt;Docker Containerize&lt;/font&gt;" style="text;html=1;align=center;verticalAlign=middle;whiteSpace=wrap;rounded=0;direction=east;" vertex="1" parent="1">
          <mxGeometry x="214.25" y="323.75" width="110.5" height="14" as="geometry" />
        </mxCell>
        <mxCell id="HzpkZbNFiSMj0MUtHJk6-18" value="&lt;font style=&quot;color: light-dark(rgb(0, 0, 0), rgb(0, 0, 0));&quot;&gt;Jenkins CI/CD&lt;/font&gt;" style="text;html=1;align=center;verticalAlign=middle;whiteSpace=wrap;rounded=0;direction=south;" vertex="1" parent="1">
          <mxGeometry x="363" y="197" width="18" height="97" as="geometry" />
        </mxCell>
        <mxCell id="HzpkZbNFiSMj0MUtHJk6-19" value="" style="endArrow=classic;html=1;rounded=0;strokeColor=light-dark(#000000,#000000);exitX=0.5;exitY=1;exitDx=0;exitDy=0;entryX=0.563;entryY=0.135;entryDx=0;entryDy=0;entryPerimeter=0;" edge="1" parent="1" source="HzpkZbNFiSMj0MUtHJk6-55" target="HzpkZbNFiSMj0MUtHJk6-23">
          <mxGeometry width="50" height="50" relative="1" as="geometry">
            <mxPoint x="616" y="507.92" as="sourcePoint" />
            <mxPoint x="493" y="604" as="targetPoint" />
          </mxGeometry>
        </mxCell>
        <mxCell id="HzpkZbNFiSMj0MUtHJk6-20" value="&lt;font style=&quot;color: light-dark(rgb(0, 0, 0), rgb(0, 0, 0));&quot;&gt;Jenkins CI/CD&lt;/font&gt;" style="text;html=1;align=center;verticalAlign=middle;whiteSpace=wrap;rounded=0;direction=south;" vertex="1" parent="1">
          <mxGeometry x="472" y="479.49999999999994" width="14" height="97" as="geometry" />
        </mxCell>
        <mxCell id="HzpkZbNFiSMj0MUtHJk6-21" value="&lt;span style=&quot;font-family: &amp;quot;Google Sans&amp;quot;, Arial, sans-serif; text-align: start; background-color: light-dark(rgb(255, 255, 255), rgb(255, 255, 255));&quot;&gt;&lt;font style=&quot;color: light-dark(rgb(0, 0, 0), rgb(0, 0, 0));&quot;&gt;containerize&lt;/font&gt;&lt;/span&gt;" style="text;html=1;align=center;verticalAlign=middle;whiteSpace=wrap;rounded=0;fillColor=none;direction=south;" vertex="1" parent="1">
          <mxGeometry x="292" y="180" width="26" height="97" as="geometry" />
        </mxCell>
        <mxCell id="HzpkZbNFiSMj0MUtHJk6-22" value="&lt;div style=&quot;text-align: start;&quot;&gt;&lt;font style=&quot;color: light-dark(rgb(0, 0, 0), rgb(0, 0, 0));&quot; face=&quot;Google Sans, Arial, sans-serif&quot;&gt;&lt;span style=&quot;background-color: light-dark(rgb(255, 255, 255), rgb(255, 255, 255));&quot;&gt;deploy&lt;/span&gt;&lt;/font&gt;&lt;/div&gt;" style="text;html=1;align=center;verticalAlign=middle;whiteSpace=wrap;rounded=0;fillColor=none;direction=south;" vertex="1" parent="1">
          <mxGeometry x="518.5" y="497" width="14" height="97" as="geometry" />
        </mxCell>
        <mxCell id="HzpkZbNFiSMj0MUtHJk6-23" value="" style="ellipse;shape=cloud;whiteSpace=wrap;html=1;fillColor=none;strokeColor=light-dark(#000000,#000000);direction=east;" vertex="1" parent="1">
          <mxGeometry x="234" y="576.5" width="359" height="336" as="geometry" />
        </mxCell>
        <mxCell id="HzpkZbNFiSMj0MUtHJk6-24" value="&lt;font style=&quot;color: light-dark(rgb(0, 0, 0), rgb(0, 0, 0));&quot;&gt;Nginx&lt;/font&gt;" style="rounded=0;whiteSpace=wrap;html=1;fillColor=none;strokeColor=light-dark(#000000,#000000);direction=east;" vertex="1" parent="1">
          <mxGeometry x="353" y="787" width="68" height="34" as="geometry" />
        </mxCell>
        <mxCell id="HzpkZbNFiSMj0MUtHJk6-25" value="&lt;font style=&quot;color: light-dark(rgb(0, 0, 0), rgb(0, 0, 0));&quot;&gt;Server&lt;/font&gt;&lt;div&gt;&lt;font style=&quot;color: light-dark(rgb(0, 0, 0), rgb(0, 0, 0));&quot;&gt;Port: 80&lt;/font&gt;&lt;/div&gt;" style="text;html=1;align=center;verticalAlign=middle;whiteSpace=wrap;rounded=0;direction=east;" vertex="1" parent="1">
          <mxGeometry x="381" y="869.5" width="97" height="14" as="geometry" />
        </mxCell>
        <mxCell id="HzpkZbNFiSMj0MUtHJk6-27" value="&lt;font style=&quot;color: light-dark(rgb(0, 0, 0), rgb(0, 0, 0));&quot;&gt;React&lt;/font&gt;&lt;div&gt;&lt;font style=&quot;color: light-dark(rgb(0, 0, 0), rgb(0, 0, 0));&quot;&gt;Frontend&lt;/font&gt;&lt;/div&gt;" style="rounded=0;whiteSpace=wrap;html=1;fillColor=none;strokeColor=light-dark(#000000,#000000);direction=east;" vertex="1" parent="1">
          <mxGeometry x="440" y="787.5" width="68" height="34" as="geometry" />
        </mxCell>
        <mxCell id="HzpkZbNFiSMj0MUtHJk6-28" value="" style="endArrow=classic;startArrow=classic;html=1;rounded=0;strokeColor=light-dark(#000000,#000000);exitX=0.5;exitY=0;exitDx=0;exitDy=0;entryX=0.5;entryY=0;entryDx=0;entryDy=0;" edge="1" parent="1" source="HzpkZbNFiSMj0MUtHJk6-32">
          <mxGeometry width="50" height="50" relative="1" as="geometry">
            <mxPoint x="479" y="776.5" as="sourcePoint" />
            <mxPoint x="430" y="751.5" as="targetPoint" />
          </mxGeometry>
        </mxCell>
        <mxCell id="HzpkZbNFiSMj0MUtHJk6-29" value="&lt;font style=&quot;color: light-dark(rgb(0, 0, 0), rgb(0, 0, 0));&quot;&gt;&lt;font&gt;Django&lt;/font&gt;&lt;br&gt;&lt;/font&gt;&lt;div&gt;&lt;font style=&quot;color: light-dark(rgb(0, 0, 0), rgb(0, 0, 0));&quot;&gt;Backend&lt;/font&gt;&lt;/div&gt;" style="rounded=0;whiteSpace=wrap;html=1;fillColor=none;strokeColor=light-dark(#000000,#000000);direction=east;" vertex="1" parent="1">
          <mxGeometry x="447" y="695.5" width="68" height="41" as="geometry" />
        </mxCell>
        <mxCell id="HzpkZbNFiSMj0MUtHJk6-30" value="&lt;font style=&quot;color: light-dark(rgb(0, 0, 0), rgb(0, 0, 0));&quot;&gt;&lt;font&gt;Gunicorn&lt;/font&gt;&lt;/font&gt;" style="rounded=0;whiteSpace=wrap;html=1;fillColor=none;strokeColor=light-dark(#000000,#000000);direction=east;" vertex="1" parent="1">
          <mxGeometry x="341" y="699" width="68" height="34" as="geometry" />
        </mxCell>
        <mxCell id="HzpkZbNFiSMj0MUtHJk6-32" value="" style="rounded=0;whiteSpace=wrap;html=1;fillColor=none;strokeColor=light-dark(#000000,#000000);direction=east;" vertex="1" parent="1">
          <mxGeometry x="340.5" y="781.5" width="178" height="59" as="geometry" />
        </mxCell>
        <mxCell id="HzpkZbNFiSMj0MUtHJk6-33" value="Actor" style="shape=umlActor;verticalLabelPosition=bottom;verticalAlign=top;html=1;outlineConnect=0;fillColor=none;strokeColor=light-dark(#000000,#000000);direction=east;" vertex="1" parent="1">
          <mxGeometry x="304" y="948.5" width="30" height="60" as="geometry" />
        </mxCell>
        <mxCell id="HzpkZbNFiSMj0MUtHJk6-34" value="Actor" style="shape=umlActor;verticalLabelPosition=bottom;verticalAlign=top;html=1;outlineConnect=0;fillColor=none;strokeColor=light-dark(#000000,#000000);direction=east;" vertex="1" parent="1">
          <mxGeometry x="409" y="982.5" width="30" height="60" as="geometry" />
        </mxCell>
        <mxCell id="HzpkZbNFiSMj0MUtHJk6-35" value="Actor" style="shape=umlActor;verticalLabelPosition=bottom;verticalAlign=top;html=1;outlineConnect=0;fillColor=none;strokeColor=light-dark(#000000,#000000);direction=east;" vertex="1" parent="1">
          <mxGeometry x="515" y="948.5" width="30" height="60" as="geometry" />
        </mxCell>
        <mxCell id="HzpkZbNFiSMj0MUtHJk6-39" value="" style="endArrow=none;html=1;rounded=0;strokeColor=light-dark(#000000,#000000);entryX=0.452;entryY=1.019;entryDx=0;entryDy=0;entryPerimeter=0;" edge="1" parent="1" target="HzpkZbNFiSMj0MUtHJk6-32">
          <mxGeometry width="50" height="50" relative="1" as="geometry">
            <mxPoint x="421" y="864" as="sourcePoint" />
            <mxPoint x="208" y="828.5" as="targetPoint" />
          </mxGeometry>
        </mxCell>
        <mxCell id="HzpkZbNFiSMj0MUtHJk6-40" value="" style="endArrow=classic;startArrow=classic;html=1;rounded=0;strokeColor=light-dark(#000000,#000000);" edge="1" parent="1" target="HzpkZbNFiSMj0MUtHJk6-23">
          <mxGeometry width="50" height="50" relative="1" as="geometry">
            <mxPoint x="524" y="943.5" as="sourcePoint" />
            <mxPoint x="537" y="893.5" as="targetPoint" />
          </mxGeometry>
        </mxCell>
        <mxCell id="HzpkZbNFiSMj0MUtHJk6-41" value="" style="endArrow=classic;startArrow=classic;html=1;rounded=0;strokeColor=light-dark(#000000,#000000);" edge="1" parent="1">
          <mxGeometry width="50" height="50" relative="1" as="geometry">
            <mxPoint x="421" y="970.5" as="sourcePoint" />
            <mxPoint x="421" y="916.5" as="targetPoint" />
          </mxGeometry>
        </mxCell>
        <mxCell id="HzpkZbNFiSMj0MUtHJk6-42" value="" style="endArrow=classic;startArrow=classic;html=1;rounded=0;strokeColor=light-dark(#000000,#000000);" edge="1" parent="1">
          <mxGeometry width="50" height="50" relative="1" as="geometry">
            <mxPoint x="324" y="937.5" as="sourcePoint" />
            <mxPoint x="374" y="887.5" as="targetPoint" />
          </mxGeometry>
        </mxCell>
        <mxCell id="HzpkZbNFiSMj0MUtHJk6-43" value="&lt;div style=&quot;text-align: start;&quot;&gt;&lt;font style=&quot;color: light-dark(rgb(0, 0, 0), rgb(0, 0, 0));&quot; face=&quot;Google Sans, Arial, sans-serif&quot;&gt;&lt;span style=&quot;background-color: light-dark(rgb(255, 255, 255), rgb(255, 255, 255));&quot;&gt;Request at port: 80&lt;/span&gt;&lt;/font&gt;&lt;/div&gt;" style="text;html=1;align=center;verticalAlign=middle;whiteSpace=wrap;rounded=0;fillColor=none;direction=east;" vertex="1" parent="1">
          <mxGeometry x="258.25" y="1015.5" width="116" height="14" as="geometry" />
        </mxCell>
        <mxCell id="HzpkZbNFiSMj0MUtHJk6-44" value="&lt;div style=&quot;text-align: start;&quot;&gt;&lt;font style=&quot;color: light-dark(rgb(0, 0, 0), rgb(0, 0, 0));&quot; face=&quot;Google Sans, Arial, sans-serif&quot;&gt;&lt;span style=&quot;background-color: light-dark(rgb(255, 255, 255), rgb(255, 255, 255));&quot;&gt;Request at port: 80&lt;/span&gt;&lt;/font&gt;&lt;/div&gt;" style="text;html=1;align=center;verticalAlign=middle;whiteSpace=wrap;rounded=0;fillColor=none;direction=east;" vertex="1" parent="1">
          <mxGeometry x="374.25" y="1050.5" width="116" height="14" as="geometry" />
        </mxCell>
        <mxCell id="HzpkZbNFiSMj0MUtHJk6-45" value="&lt;div style=&quot;text-align: start;&quot;&gt;&lt;font style=&quot;color: light-dark(rgb(0, 0, 0), rgb(0, 0, 0));&quot; face=&quot;Google Sans, Arial, sans-serif&quot;&gt;&lt;span style=&quot;background-color: light-dark(rgb(255, 255, 255), rgb(255, 255, 255));&quot;&gt;Request at port: 80&lt;/span&gt;&lt;/font&gt;&lt;/div&gt;" style="text;html=1;align=center;verticalAlign=middle;whiteSpace=wrap;rounded=0;fillColor=none;direction=east;" vertex="1" parent="1">
          <mxGeometry x="472" y="1015.5" width="116" height="14" as="geometry" />
        </mxCell>
        <mxCell id="HzpkZbNFiSMj0MUtHJk6-46" value="&lt;font style=&quot;color: light-dark(rgb(0, 0, 0), rgb(0, 0, 0));&quot;&gt;Oracle&lt;/font&gt;&lt;div&gt;&lt;font style=&quot;color: light-dark(rgb(0, 0, 0), rgb(0, 0, 0));&quot;&gt;Port: 1521&lt;/font&gt;&lt;/div&gt;" style="rounded=0;whiteSpace=wrap;html=1;fillColor=none;strokeColor=light-dark(#000000,#000000);direction=east;" vertex="1" parent="1">
          <mxGeometry x="362" y="623.5" width="68" height="34" as="geometry" />
        </mxCell>
        <mxCell id="HzpkZbNFiSMj0MUtHJk6-47" value="" style="rounded=0;whiteSpace=wrap;html=1;fillColor=none;strokeColor=light-dark(#000000,#000000);direction=east;" vertex="1" parent="1">
          <mxGeometry x="332" y="690.75" width="195" height="57.75" as="geometry" />
        </mxCell>
        <mxCell id="HzpkZbNFiSMj0MUtHJk6-48" value="&lt;span style=&quot;color: light-dark(rgb(0, 0, 0), rgb(0, 0, 0)); background-color: transparent;&quot;&gt;Port: 8080&lt;/span&gt;" style="text;html=1;align=center;verticalAlign=middle;whiteSpace=wrap;rounded=0;direction=east;" vertex="1" parent="1">
          <mxGeometry x="381" y="824.5" width="97" height="14" as="geometry" />
        </mxCell>
        <mxCell id="HzpkZbNFiSMj0MUtHJk6-49" value="&lt;span style=&quot;color: light-dark(rgb(0, 0, 0), rgb(0, 0, 0)); background-color: transparent;&quot;&gt;Port: 8080&lt;/span&gt;" style="text;html=1;align=center;verticalAlign=middle;whiteSpace=wrap;rounded=0;direction=east;" vertex="1" parent="1">
          <mxGeometry x="368" y="733" width="97" height="14" as="geometry" />
        </mxCell>
        <mxCell id="HzpkZbNFiSMj0MUtHJk6-50" value="" style="endArrow=classic;startArrow=classic;html=1;rounded=0;strokeColor=light-dark(#000000,#000000);entryX=0.5;entryY=1;entryDx=0;entryDy=0;exitX=0.333;exitY=0.048;exitDx=0;exitDy=0;exitPerimeter=0;" edge="1" parent="1" source="HzpkZbNFiSMj0MUtHJk6-47" target="HzpkZbNFiSMj0MUtHJk6-46">
          <mxGeometry width="50" height="50" relative="1" as="geometry">
            <mxPoint x="440" y="791.5" as="sourcePoint" />
            <mxPoint x="440" y="761.5" as="targetPoint" />
          </mxGeometry>
        </mxCell>
        <mxCell id="HzpkZbNFiSMj0MUtHJk6-52" value="&lt;span style=&quot;font-family: &amp;quot;Google Sans&amp;quot;, Arial, sans-serif; text-align: start; background-color: light-dark(rgb(255, 255, 255), rgb(255, 255, 255));&quot;&gt;&lt;font style=&quot;color: light-dark(rgb(0, 0, 0), rgb(0, 0, 0));&quot;&gt;Git Push/Pull&lt;/font&gt;&lt;/span&gt;" style="text;html=1;align=center;verticalAlign=middle;whiteSpace=wrap;rounded=0;fillColor=none;direction=south;" vertex="1" parent="1">
          <mxGeometry x="309.25" y="63" width="14" height="97" as="geometry" />
        </mxCell>
        <mxCell id="HzpkZbNFiSMj0MUtHJk6-53" value="&lt;span style=&quot;font-family: &amp;quot;Google Sans&amp;quot;, Arial, sans-serif; text-align: start; background-color: light-dark(rgb(255, 255, 255), rgb(255, 255, 255));&quot;&gt;&lt;font style=&quot;color: light-dark(rgb(0, 0, 0), rgb(0, 0, 0));&quot;&gt;Git Push/Pull&lt;/font&gt;&lt;/span&gt;" style="text;html=1;align=center;verticalAlign=middle;whiteSpace=wrap;rounded=0;fillColor=none;direction=south;" vertex="1" parent="1">
          <mxGeometry x="381" y="42" width="14" height="97" as="geometry" />
        </mxCell>
        <mxCell id="HzpkZbNFiSMj0MUtHJk6-54" value="&lt;span style=&quot;font-family: &amp;quot;Google Sans&amp;quot;, Arial, sans-serif; text-align: start; background-color: light-dark(rgb(255, 255, 255), rgb(255, 255, 255));&quot;&gt;&lt;font style=&quot;color: light-dark(rgb(0, 0, 0), rgb(0, 0, 0));&quot;&gt;Git Push/Pull&lt;/font&gt;&lt;/span&gt;" style="text;html=1;align=center;verticalAlign=middle;whiteSpace=wrap;rounded=0;fillColor=none;direction=south;" vertex="1" parent="1">
          <mxGeometry x="467" y="68" width="14" height="97" as="geometry" />
        </mxCell>
        <mxCell id="HzpkZbNFiSMj0MUtHJk6-55" value="" style="rounded=0;whiteSpace=wrap;html=1;fillColor=none;strokeColor=light-dark(#000000,#000000);" vertex="1" parent="1">
          <mxGeometry x="517.25" y="384.25" width="120" height="60" as="geometry" />
        </mxCell>
        <mxCell id="HzpkZbNFiSMj0MUtHJk6-56" value="" style="endArrow=classic;html=1;rounded=0;exitX=1;exitY=0.5;exitDx=0;exitDy=0;strokeColor=light-dark(#000000,#000000);" edge="1" parent="1" source="HzpkZbNFiSMj0MUtHJk6-11">
          <mxGeometry width="50" height="50" relative="1" as="geometry">
            <mxPoint x="382" y="466" as="sourcePoint" />
            <mxPoint x="513" y="414" as="targetPoint" />
          </mxGeometry>
        </mxCell>
        <mxCell id="HzpkZbNFiSMj0MUtHJk6-58" value="&lt;font style=&quot;color: light-dark(rgb(0, 0, 0), rgb(0, 0, 0));&quot;&gt;Build and Test&lt;/font&gt;" style="text;html=1;align=center;verticalAlign=middle;whiteSpace=wrap;rounded=0;" vertex="1" parent="1">
          <mxGeometry x="547.25" y="397" width="60" height="30" as="geometry" />
        </mxCell>
        <mxCell id="HzpkZbNFiSMj0MUtHJk6-59" value="&lt;font style=&quot;color: light-dark(rgb(0, 0, 0), rgb(0, 0, 0));&quot;&gt;Jenkins CI/CD&lt;/font&gt;" style="text;html=1;align=center;verticalAlign=middle;whiteSpace=wrap;rounded=0;direction=west;" vertex="1" parent="1">
          <mxGeometry x="384.75" y="394" width="97" height="18" as="geometry" />
        </mxCell>
        <mxCell id="HzpkZbNFiSMj0MUtHJk6-61" value="" style="endArrow=classic;html=1;rounded=0;strokeColor=light-dark(#000000,#000000);entryX=0.855;entryY=0.855;entryDx=0;entryDy=0;entryPerimeter=0;" edge="1" parent="1" target="HzpkZbNFiSMj0MUtHJk6-1">
          <mxGeometry width="50" height="50" relative="1" as="geometry">
            <mxPoint x="564" y="380" as="sourcePoint" />
            <mxPoint x="425" y="164" as="targetPoint" />
          </mxGeometry>
        </mxCell>
        <mxCell id="HzpkZbNFiSMj0MUtHJk6-65" value="&lt;div style=&quot;text-align: start;&quot;&gt;&lt;font style=&quot;color: light-dark(rgb(0, 0, 0), rgb(0, 0, 0));&quot; face=&quot;Google Sans, Arial, sans-serif&quot;&gt;&lt;span style=&quot;background-color: light-dark(rgb(255, 255, 255), rgb(255, 255, 255));&quot;&gt;test build&lt;/span&gt;&lt;/font&gt;&lt;/div&gt;" style="text;html=1;align=center;verticalAlign=middle;whiteSpace=wrap;rounded=0;fillColor=none;direction=west;" vertex="1" parent="1">
          <mxGeometry x="390" y="421" width="97" height="14" as="geometry" />
        </mxCell>
        <mxCell id="HzpkZbNFiSMj0MUtHJk6-66" value="&lt;font style=&quot;color: light-dark(rgb(0, 0, 0), rgb(0, 0, 0));&quot;&gt;Jenkins CI/CD&lt;/font&gt;" style="text;html=1;align=center;verticalAlign=middle;whiteSpace=wrap;rounded=0;direction=north;" vertex="1" parent="1">
          <mxGeometry x="500.75" y="219" width="18" height="97" as="geometry" />
        </mxCell>
        <mxCell id="HzpkZbNFiSMj0MUtHJk6-67" value="&lt;div style=&quot;text-align: start;&quot;&gt;&lt;font style=&quot;color: light-dark(rgb(0, 0, 0), rgb(0, 0, 0));&quot; face=&quot;Google Sans, Arial, sans-serif&quot;&gt;&lt;span style=&quot;background-color: light-dark(rgb(255, 255, 255), rgb(255, 255, 255));&quot;&gt;report&lt;/span&gt;&lt;/font&gt;&lt;/div&gt;&lt;div style=&quot;text-align: start;&quot;&gt;&lt;font style=&quot;color: light-dark(rgb(0, 0, 0), rgb(0, 0, 0));&quot; face=&quot;Google Sans, Arial, sans-serif&quot;&gt;&lt;span style=&quot;background-color: light-dark(rgb(255, 255, 255), rgb(255, 255, 255));&quot;&gt;bug&lt;/span&gt;&lt;/font&gt;&lt;/div&gt;" style="text;html=1;align=center;verticalAlign=middle;whiteSpace=wrap;rounded=0;fillColor=none;direction=north;" vertex="1" parent="1">
          <mxGeometry x="454" y="231" width="14" height="97" as="geometry" />
        </mxCell>
      </root>
    </mxGraphModel>
  </diagram>
</mxfile>
